PathFileType	4	(X/Y/Z)	./resultDataOpenSim/trcMotMarkerGrf/sub09/qtm-14-04.trc
DataRate	CameraRate	NumFrames	NumMarkers	Units	OrigDataRate	OrigDataStartFrame	OrigNumFrames
250.000000	250.000000	7	24	m	250.000000	120	479
Frame#	Time	L.Toe.Tip			R.Toe.Tip			L.Ankle.Lat			R.Ankle.Lat			L.Ankle.Med			R.Ankle.Med			L.Heel			R.Heel			L.Knee.Lat			R.Knee.Lat			L.Knee.Med			R.Knee.Med			L.Thigh.Upper			R.Thigh.Upper			L.ASIS			R.ASIS			V.Sacral			L.Acromium			R.Acromium			C7			L.Elbow			R.Elbow			L.Wrist.Lat			R.Wrist.Lat
		X1	Y1	Z1	X2	Y2	Z2	X3	Y3	Z3	X4	Y4	Z4	X5	Y5	Z5	X6	Y6	Z6	X7	Y7	Z7	X8	Y8	Z8	X9	Y9	Z9	X10	Y10	Z10	X11	Y11	Z11	X12	Y12	Z12	X13	Y13	Z13	X14	Y14	Z14	X15	Y15	Z15	X16	Y16	Z16	X17	Y17	Z17	X18	Y18	Z18	X19	Y19	Z19	X20	Y20	Z20	X21	Y21	Z21	X22	Y22	Z22	X23	Y23	Z23	X24	Y24	Z24

120	0.476	-0.35372709	0.066390893	-0.018130689	-0.67498527	0.039687318	0.10141989	-0.50345547	0.095236783	-0.048683516	-0.82108706	0.056990181	0.13515629	-0.47753868	0.11369335	0.045327301	-0.81214609	0.093312962	0.042972973	-0.56805086	0.052948775	0.0037893876	-0.89078453	0.035705103	0.087085668	-0.46970508	0.51228961	-0.085817139	-0.69255466	0.49840736	0.19022892	-0.46819391	0.5090975	0.040017051	-0.71419969	0.48954158	0.062020213	-0.6459198	0.89439159	-0.12906305	-0.67586979	0.9057672	0.23977764	-0.57651204	0.98140677	-0.066476248	-0.57314562	0.98668627	0.17259179	-0.74250303	1.0399113	0.049652751	-0.57948016	1.4330471	-0.12061193	-0.59116274	1.4463929	0.20913844	-0.65303899	1.4909503	0.044867983	-0.73853143	1.0993262	-0.16871407	-0.70336149	1.0948328	0.30304291	-0.61790211	0.86600447	-0.20432205	-0.49862942	0.90594081	0.30391974
121	0.48	-0.33347764	0.068369959	-0.017850772	-0.67499818	0.039651851	0.10150479	-0.48402524	0.093429677	-0.048512627	-0.82114127	0.057045776	0.13495338	-0.45856706	0.11279523	0.045669194	-0.81195617	0.093334325	0.04281802	-0.54727957	0.049640648	0.0039974484	-0.8907769	0.035825252	0.086757451	-0.46258138	0.5113651	-0.08604562	-0.69113964	0.49820846	0.19046921	-0.46131942	0.508198	0.039591669	-0.71243162	0.48927456	0.062269637	-0.63982725	0.89322174	-0.1291053	-0.6700491	0.90509876	0.23944775	-0.569963	0.9802929	-0.066336902	-0.567218	0.9857135	0.17283558	-0.73612259	1.038905	0.049594998	-0.57337665	1.4320636	-0.12077973	-0.58522652	1.4455559	0.20899667	-0.64698988	1.4899581	0.04467292	-0.7329217	1.0987391	-0.16899439	-0.69683001	1.0937044	0.30315276	-0.61358327	0.86495021	-0.20515874	-0.49088292	0.90599174	0.30338817
122	0.484	-0.31342593	0.070566229	-0.017480529	-0.67501384	0.039613483	0.10158367	-0.46464989	0.091901022	-0.048394079	-0.82121272	0.057119134	0.13475633	-0.43977693	0.11211212	0.045953448	-0.81178619	0.093345888	0.042643296	-0.52671031	0.046708902	0.0040981044	-0.8907741	0.035955045	0.086418811	-0.45550423	0.51029382	-0.086329115	-0.68966973	0.49800724	0.19069497	-0.45456308	0.50716482	0.039073092	-0.71053487	0.48899284	0.062486305	-0.63363963	0.89196691	-0.12914837	-0.66427961	0.90438828	0.23913795	-0.56339887	0.97909504	-0.066185733	-0.56130097	0.98467185	0.17307186	-0.72971067	1.0378219	0.049453405	-0.5672728	1.4310233	-0.12097602	-0.57927332	1.4446384	0.20885789	-0.6409224	1.4888856	0.044464549	-0.72728134	1.098077	-0.16928759	-0.69028008	1.0924912	0.30323409	-0.60915468	0.86382864	-0.20596786	-0.48315209	0.9059615	0.30286103
123	0.488	-0.29359577	0.072961669	-0.017000138	-0.67503296	0.039575166	0.10165862	-0.44538503	0.090660331	-0.048324225	-0.8212918	0.057208346	0.13456748	-0.42119387	0.11166127	0.046177483	-0.81165386	0.093354833	0.042452348	-0.50631934	0.04413391	0.0041583435	-0.89078312	0.036096557	0.086078948	-0.44846284	0.5091075	-0.08667147	-0.68806565	0.49773311	0.1909345	-0.44778637	0.50600542	0.038571137	-0.70851864	0.48867498	0.062674529	-0.62731764	0.8906413	-0.12916736	-0.6586739	0.90364417	0.23894657	-0.55681725	0.97782632	-0.066005012	-0.55548996	0.98353215	0.17330748	-0.72327467	1.0367323	0.049181377	-0.56115945	1.4299161	-0.12117285	-0.57331252	1.4436467	0.20872796	-0.63484489	1.4877435	0.044254008	-0.72161688	1.097334	-0.16960207	-0.68371421	1.0911958	0.30328324	-0.60470801	0.86260638	-0.206782	-0.47543565	0.9058455	0.30233853
124	0.492	-0.27400275	0.075529149	-0.016422222	-0.67505434	0.03953211	0.10173065	-0.42628663	0.089711347	-0.048287197	-0.82137433	0.057305034	0.1343872	-0.40281127	0.11147078	0.0463401	-0.81153648	0.093375548	0.042248939	-0.48611098	0.041899836	0.004184605	-0.89080378	0.036248651	0.08573892	-0.44146075	0.50785425	-0.087061655	-0.68632734	0.49735444	0.19117876	-0.44093861	0.50472751	0.03815534	-0.70641047	0.48831404	0.06284506	-0.62082184	0.8892567	-0.12915691	-0.65339376	0.90285452	0.23904212	-0.55022233	0.97648689	-0.065791165	-0.54984336	0.98226712	0.17354943	-0.7168227	1.0356651	0.048786454	-0.55502639	1.4287228	-0.12134768	-0.56733753	1.4425861	0.20859734	-0.62875643	1.4865412	0.044048578	-0.71591733	1.0965027	-0.16990482	-0.67714162	1.0898197	0.30330267	-0.60029297	0.86128306	-0.20762983	-0.46773542	0.90564441	0.30181832
125	0.496	-0.25467827	0.078234403	-0.015789563	-0.67507249	0.039471918	0.10179909	-0.40740781	0.089035205	-0.048267242	-0.82146064	0.057398877	0.13421188	-0.38461827	0.11155321	0.046428956	-0.81138922	0.09342141	0.042040669	-0.46610904	0.039994115	0.004166438	-0.89082971	0.03641479	0.085388239	-0.43449596	0.50656557	-0.08747773	-0.68448331	0.49688434	0.19140498	-0.43405307	0.50332635	0.037839363	-0.70423164	0.48791361	0.063010157	-0.61410039	0.88782017	-0.12912588	-0.6485606	0.90198061	0.23957967	-0.54361959	0.97507464	-0.065555667	-0.54427343	0.98089664	0.17380046	-0.71037269	1.0345059	0.048406624	-0.5488787	1.4274368	-0.12150218	-0.56133836	1.441457	0.20846005	-0.62265236	1.485279	0.04384366	-0.71016095	1.0955723	-0.17013279	-0.6705725	1.088366	0.30330233	-0.59589403	0.85988578	-0.20851457	-0.46005995	0.90536284	0.30129803
126	0.5	-0.23568302	0.081049534	-0.01514689	-0.67508082	0.039383597	0.10185882	-0.38879652	0.088594967	-0.048260144	-0.82154907	0.057487176	0.13403371	-0.36663824	0.11189216	0.046430414	-0.81119144	0.09349236	0.041837675	-0.44635531	0.038410634	0.0041020515	-0.89085333	0.036602592	0.085016676	-0.42754321	0.50524697	-0.087894557	-0.68250424	0.49635558	0.19162432	-0.4271202	0.50180225	0.037645495	-0.70200062	0.48748805	0.063182356	-0.60714764	0.88632808	-0.12908773	-0.64409283	0.9009861	0.24050491	-0.53702128	0.97359466	-0.065311446	-0.53858882	0.97948652	0.17405788	-0.70395239	1.0330809	0.048220242	-0.54271916	1.4260658	-0.12166129	-0.55532257	1.4402526	0.20831723	-0.61652793	1.4839477	0.043630203	-0.70433885	1.0945358	-0.17025814	-0.66400544	1.0868384	0.30328763	-0.59147987	0.85843112	-0.20942869	-0.45241888	0.90500009	0.3007785
